<mxfile host="app.diagrams.net" modified="2023-06-21T11:03:24.510Z" agent="Mozilla/5.0 (Windows NT 10.0; Win64; x64) AppleWebKit/537.36 (KHTML, like Gecko) Chrome/114.0.0.0 Safari/537.36 Edg/114.0.1823.51" etag="nEPgnepbKcQk-Xeyuuq8" version="21.3.7" type="github">
  <diagram name="Page-1" id="0783ab3e-0a74-02c8-0abd-f7b4e66b4bec">
    <mxGraphModel dx="1518" dy="695" grid="1" gridSize="10" guides="1" tooltips="1" connect="1" arrows="1" fold="1" page="1" pageScale="1" pageWidth="850" pageHeight="1100" background="none" math="0" shadow="0">
      <root>
        <mxCell id="0" />
        <mxCell id="1" parent="0" />
        <mxCell id="1c1d494c118603dd-1" value="Hospital Management System" style="swimlane;html=1;childLayout=stackLayout;startSize=20;rounded=0;shadow=0;comic=0;labelBackgroundColor=none;strokeWidth=1;fontFamily=Verdana;fontSize=12;align=center;" parent="1" vertex="1">
          <mxGeometry x="220" y="90" width="1050" height="1190" as="geometry" />
        </mxCell>
        <mxCell id="1c1d494c118603dd-2" value="Hospital staff" style="swimlane;html=1;startSize=20;" parent="1c1d494c118603dd-1" vertex="1">
          <mxGeometry y="20" width="230" height="1170" as="geometry" />
        </mxCell>
        <mxCell id="asrnsn3DoZuYNmiQa2Yn-4" value="" style="ellipse;whiteSpace=wrap;html=1;rounded=0;shadow=0;comic=0;labelBackgroundColor=none;strokeWidth=1;fillColor=#000000;fontFamily=Verdana;fontSize=12;align=center;" vertex="1" parent="1c1d494c118603dd-2">
          <mxGeometry x="90" y="50" width="40" height="40" as="geometry" />
        </mxCell>
        <mxCell id="asrnsn3DoZuYNmiQa2Yn-30" style="edgeStyle=none;curved=1;rounded=0;orthogonalLoop=1;jettySize=auto;html=1;fontSize=12;startSize=8;endSize=8;" edge="1" parent="1c1d494c118603dd-2" source="asrnsn3DoZuYNmiQa2Yn-5" target="asrnsn3DoZuYNmiQa2Yn-17">
          <mxGeometry relative="1" as="geometry" />
        </mxCell>
        <mxCell id="asrnsn3DoZuYNmiQa2Yn-5" value="Login" style="rounded=1;whiteSpace=wrap;html=1;shadow=0;comic=0;labelBackgroundColor=none;strokeWidth=1;fontFamily=Verdana;fontSize=12;align=center;arcSize=50;" vertex="1" parent="1c1d494c118603dd-2">
          <mxGeometry x="60" y="120" width="100" height="30" as="geometry" />
        </mxCell>
        <mxCell id="asrnsn3DoZuYNmiQa2Yn-3" style="edgeStyle=orthogonalEdgeStyle;rounded=0;html=1;labelBackgroundColor=none;startArrow=none;startFill=0;startSize=5;endArrow=classicThin;endFill=1;endSize=5;jettySize=auto;orthogonalLoop=1;strokeWidth=1;fontFamily=Verdana;fontSize=12" edge="1" parent="1c1d494c118603dd-2" source="asrnsn3DoZuYNmiQa2Yn-4" target="asrnsn3DoZuYNmiQa2Yn-5">
          <mxGeometry relative="1" as="geometry" />
        </mxCell>
        <mxCell id="asrnsn3DoZuYNmiQa2Yn-31" style="edgeStyle=none;curved=1;rounded=0;orthogonalLoop=1;jettySize=auto;html=1;fontSize=12;startSize=8;endSize=8;" edge="1" parent="1c1d494c118603dd-2" source="asrnsn3DoZuYNmiQa2Yn-17" target="asrnsn3DoZuYNmiQa2Yn-19">
          <mxGeometry relative="1" as="geometry" />
        </mxCell>
        <mxCell id="asrnsn3DoZuYNmiQa2Yn-17" value="&lt;font style=&quot;font-size: 12px;&quot;&gt;Select &quot;Admissions&quot;&lt;/font&gt;" style="rhombus;whiteSpace=wrap;html=1;fontSize=16;" vertex="1" parent="1c1d494c118603dd-2">
          <mxGeometry x="25" y="170" width="170" height="60" as="geometry" />
        </mxCell>
        <mxCell id="asrnsn3DoZuYNmiQa2Yn-32" style="edgeStyle=none;curved=1;rounded=0;orthogonalLoop=1;jettySize=auto;html=1;entryX=0.5;entryY=0;entryDx=0;entryDy=0;fontSize=12;startSize=8;endSize=8;" edge="1" parent="1c1d494c118603dd-2" source="asrnsn3DoZuYNmiQa2Yn-19" target="asrnsn3DoZuYNmiQa2Yn-22">
          <mxGeometry relative="1" as="geometry" />
        </mxCell>
        <mxCell id="asrnsn3DoZuYNmiQa2Yn-19" value="&lt;font style=&quot;font-size: 12px;&quot;&gt;Select &quot;Appointments&quot;&lt;/font&gt;" style="rhombus;whiteSpace=wrap;html=1;fontSize=16;" vertex="1" parent="1c1d494c118603dd-2">
          <mxGeometry x="26" y="410" width="170" height="60" as="geometry" />
        </mxCell>
        <mxCell id="asrnsn3DoZuYNmiQa2Yn-33" style="edgeStyle=none;curved=1;rounded=0;orthogonalLoop=1;jettySize=auto;html=1;fontSize=12;startSize=8;endSize=8;" edge="1" parent="1c1d494c118603dd-2" source="asrnsn3DoZuYNmiQa2Yn-22" target="asrnsn3DoZuYNmiQa2Yn-26">
          <mxGeometry relative="1" as="geometry" />
        </mxCell>
        <mxCell id="asrnsn3DoZuYNmiQa2Yn-22" value="&lt;font style=&quot;font-size: 12px;&quot;&gt;Select &quot;Medical Records&quot;&lt;/font&gt;" style="rhombus;whiteSpace=wrap;html=1;fontSize=16;" vertex="1" parent="1c1d494c118603dd-2">
          <mxGeometry x="25" y="650" width="170" height="60" as="geometry" />
        </mxCell>
        <mxCell id="asrnsn3DoZuYNmiQa2Yn-95" style="edgeStyle=none;curved=1;rounded=0;orthogonalLoop=1;jettySize=auto;html=1;entryX=0.5;entryY=0;entryDx=0;entryDy=0;fontSize=12;startSize=8;endSize=8;" edge="1" parent="1c1d494c118603dd-2" source="asrnsn3DoZuYNmiQa2Yn-26" target="asrnsn3DoZuYNmiQa2Yn-94">
          <mxGeometry relative="1" as="geometry" />
        </mxCell>
        <mxCell id="asrnsn3DoZuYNmiQa2Yn-26" value="&lt;font style=&quot;font-size: 12px;&quot;&gt;Select &quot;Medical Records&quot;&lt;/font&gt;" style="rhombus;whiteSpace=wrap;html=1;fontSize=16;" vertex="1" parent="1c1d494c118603dd-2">
          <mxGeometry x="25" y="900" width="170" height="60" as="geometry" />
        </mxCell>
        <mxCell id="asrnsn3DoZuYNmiQa2Yn-73" value="Yes" style="text;strokeColor=none;fillColor=none;html=1;align=center;verticalAlign=middle;whiteSpace=wrap;rounded=0;fontSize=16;" vertex="1" parent="1c1d494c118603dd-2">
          <mxGeometry x="160" y="170" width="60" height="30" as="geometry" />
        </mxCell>
        <mxCell id="asrnsn3DoZuYNmiQa2Yn-87" value="Yes" style="text;strokeColor=none;fillColor=none;html=1;align=center;verticalAlign=middle;whiteSpace=wrap;rounded=0;fontSize=16;" vertex="1" parent="1c1d494c118603dd-2">
          <mxGeometry x="160" y="410" width="60" height="30" as="geometry" />
        </mxCell>
        <mxCell id="asrnsn3DoZuYNmiQa2Yn-88" value="Yes" style="text;strokeColor=none;fillColor=none;html=1;align=center;verticalAlign=middle;whiteSpace=wrap;rounded=0;fontSize=16;" vertex="1" parent="1c1d494c118603dd-2">
          <mxGeometry x="170" y="650" width="60" height="30" as="geometry" />
        </mxCell>
        <mxCell id="asrnsn3DoZuYNmiQa2Yn-89" value="Yes" style="text;strokeColor=none;fillColor=none;html=1;align=center;verticalAlign=middle;whiteSpace=wrap;rounded=0;fontSize=16;" vertex="1" parent="1c1d494c118603dd-2">
          <mxGeometry x="170" y="900" width="60" height="30" as="geometry" />
        </mxCell>
        <mxCell id="asrnsn3DoZuYNmiQa2Yn-90" value="No" style="text;strokeColor=none;fillColor=none;html=1;align=center;verticalAlign=middle;whiteSpace=wrap;rounded=0;fontSize=16;" vertex="1" parent="1c1d494c118603dd-2">
          <mxGeometry x="50" y="230" width="60" height="30" as="geometry" />
        </mxCell>
        <mxCell id="asrnsn3DoZuYNmiQa2Yn-91" value="No" style="text;strokeColor=none;fillColor=none;html=1;align=center;verticalAlign=middle;whiteSpace=wrap;rounded=0;fontSize=16;" vertex="1" parent="1c1d494c118603dd-2">
          <mxGeometry x="50" y="470" width="60" height="30" as="geometry" />
        </mxCell>
        <mxCell id="asrnsn3DoZuYNmiQa2Yn-92" value="No" style="text;strokeColor=none;fillColor=none;html=1;align=center;verticalAlign=middle;whiteSpace=wrap;rounded=0;fontSize=16;" vertex="1" parent="1c1d494c118603dd-2">
          <mxGeometry x="50" y="710" width="60" height="30" as="geometry" />
        </mxCell>
        <mxCell id="asrnsn3DoZuYNmiQa2Yn-93" value="No" style="text;strokeColor=none;fillColor=none;html=1;align=center;verticalAlign=middle;whiteSpace=wrap;rounded=0;fontSize=16;" vertex="1" parent="1c1d494c118603dd-2">
          <mxGeometry x="50" y="960" width="60" height="30" as="geometry" />
        </mxCell>
        <mxCell id="asrnsn3DoZuYNmiQa2Yn-94" value="" style="shape=mxgraph.bpmn.shape;html=1;verticalLabelPosition=bottom;labelBackgroundColor=#ffffff;verticalAlign=top;perimeter=ellipsePerimeter;outline=end;symbol=terminate;rounded=0;shadow=0;comic=0;strokeWidth=1;fontFamily=Verdana;fontSize=12;align=center;" vertex="1" parent="1c1d494c118603dd-2">
          <mxGeometry x="91" y="1020" width="40" height="40" as="geometry" />
        </mxCell>
        <mxCell id="asrnsn3DoZuYNmiQa2Yn-40" style="edgeStyle=none;curved=1;rounded=0;orthogonalLoop=1;jettySize=auto;html=1;fontSize=12;startSize=8;endSize=8;" edge="1" parent="1c1d494c118603dd-1" source="asrnsn3DoZuYNmiQa2Yn-22" target="asrnsn3DoZuYNmiQa2Yn-23">
          <mxGeometry relative="1" as="geometry" />
        </mxCell>
        <mxCell id="1c1d494c118603dd-3" value="Admissions" style="swimlane;html=1;startSize=20;" parent="1c1d494c118603dd-1" vertex="1">
          <mxGeometry x="230" y="20" width="210" height="1170" as="geometry" />
        </mxCell>
        <mxCell id="asrnsn3DoZuYNmiQa2Yn-35" style="edgeStyle=none;curved=1;rounded=0;orthogonalLoop=1;jettySize=auto;html=1;fontSize=12;startSize=8;endSize=8;" edge="1" parent="1c1d494c118603dd-3" source="asrnsn3DoZuYNmiQa2Yn-6" target="asrnsn3DoZuYNmiQa2Yn-16">
          <mxGeometry relative="1" as="geometry" />
        </mxCell>
        <mxCell id="asrnsn3DoZuYNmiQa2Yn-6" value="Enter patient information for admission" style="rounded=1;whiteSpace=wrap;html=1;shadow=0;comic=0;labelBackgroundColor=none;strokeWidth=1;fontFamily=Verdana;fontSize=12;align=center;arcSize=50;" vertex="1" parent="1c1d494c118603dd-3">
          <mxGeometry x="23.75" y="180" width="162.5" height="40" as="geometry" />
        </mxCell>
        <mxCell id="asrnsn3DoZuYNmiQa2Yn-36" style="edgeStyle=none;curved=1;rounded=0;orthogonalLoop=1;jettySize=auto;html=1;fontSize=12;startSize=8;endSize=8;" edge="1" parent="1c1d494c118603dd-3" source="asrnsn3DoZuYNmiQa2Yn-16" target="asrnsn3DoZuYNmiQa2Yn-15">
          <mxGeometry relative="1" as="geometry" />
        </mxCell>
        <mxCell id="asrnsn3DoZuYNmiQa2Yn-16" value="Assign a room or bed to patient" style="rounded=1;whiteSpace=wrap;html=1;shadow=0;comic=0;labelBackgroundColor=none;strokeWidth=1;fontFamily=Verdana;fontSize=12;align=center;arcSize=50;" vertex="1" parent="1c1d494c118603dd-3">
          <mxGeometry x="28.75" y="240" width="152.5" height="30" as="geometry" />
        </mxCell>
        <mxCell id="asrnsn3DoZuYNmiQa2Yn-15" value="Generate admission ID" style="rounded=1;whiteSpace=wrap;html=1;shadow=0;comic=0;labelBackgroundColor=none;strokeWidth=1;fontFamily=Verdana;fontSize=12;align=center;arcSize=50;" vertex="1" parent="1c1d494c118603dd-3">
          <mxGeometry x="30" y="290" width="150" height="30" as="geometry" />
        </mxCell>
        <mxCell id="asrnsn3DoZuYNmiQa2Yn-53" value="" style="shape=mxgraph.bpmn.shape;html=1;verticalLabelPosition=bottom;labelBackgroundColor=#ffffff;verticalAlign=top;perimeter=ellipsePerimeter;outline=end;symbol=terminate;rounded=0;shadow=0;comic=0;strokeWidth=1;fontFamily=Verdana;fontSize=12;align=center;" vertex="1" parent="1c1d494c118603dd-3">
          <mxGeometry x="85" y="350" width="40" height="40" as="geometry" />
        </mxCell>
        <mxCell id="asrnsn3DoZuYNmiQa2Yn-60" style="edgeStyle=none;curved=1;rounded=0;orthogonalLoop=1;jettySize=auto;html=1;fontSize=12;startSize=8;endSize=8;" edge="1" parent="1c1d494c118603dd-3" source="asrnsn3DoZuYNmiQa2Yn-15" target="asrnsn3DoZuYNmiQa2Yn-53">
          <mxGeometry relative="1" as="geometry" />
        </mxCell>
        <mxCell id="1c1d494c118603dd-4" value="Appointments" style="swimlane;html=1;startSize=20;" parent="1c1d494c118603dd-1" vertex="1">
          <mxGeometry x="440" y="20" width="210" height="1170" as="geometry" />
        </mxCell>
        <mxCell id="asrnsn3DoZuYNmiQa2Yn-38" style="edgeStyle=none;curved=1;rounded=0;orthogonalLoop=1;jettySize=auto;html=1;fontSize=12;startSize=8;endSize=8;" edge="1" parent="1c1d494c118603dd-4" source="asrnsn3DoZuYNmiQa2Yn-14" target="asrnsn3DoZuYNmiQa2Yn-20">
          <mxGeometry relative="1" as="geometry" />
        </mxCell>
        <mxCell id="asrnsn3DoZuYNmiQa2Yn-14" value="Check the availability of doctors" style="rounded=1;whiteSpace=wrap;html=1;shadow=0;comic=0;labelBackgroundColor=none;strokeWidth=1;fontFamily=Verdana;fontSize=12;align=center;arcSize=50;" vertex="1" parent="1c1d494c118603dd-4">
          <mxGeometry x="33.5" y="430" width="145" height="30" as="geometry" />
        </mxCell>
        <mxCell id="asrnsn3DoZuYNmiQa2Yn-39" style="edgeStyle=none;curved=1;rounded=0;orthogonalLoop=1;jettySize=auto;html=1;fontSize=12;startSize=8;endSize=8;" edge="1" parent="1c1d494c118603dd-4" source="asrnsn3DoZuYNmiQa2Yn-20" target="asrnsn3DoZuYNmiQa2Yn-21">
          <mxGeometry relative="1" as="geometry" />
        </mxCell>
        <mxCell id="asrnsn3DoZuYNmiQa2Yn-20" value="Schedule appointments for patients" style="rounded=1;whiteSpace=wrap;html=1;shadow=0;comic=0;labelBackgroundColor=none;strokeWidth=1;fontFamily=Verdana;fontSize=12;align=center;arcSize=50;" vertex="1" parent="1c1d494c118603dd-4">
          <mxGeometry x="31" y="480" width="150" height="40" as="geometry" />
        </mxCell>
        <mxCell id="asrnsn3DoZuYNmiQa2Yn-72" style="edgeStyle=none;curved=1;rounded=0;orthogonalLoop=1;jettySize=auto;html=1;entryX=0.5;entryY=0;entryDx=0;entryDy=0;fontSize=12;startSize=8;endSize=8;" edge="1" parent="1c1d494c118603dd-4" source="asrnsn3DoZuYNmiQa2Yn-21" target="asrnsn3DoZuYNmiQa2Yn-55">
          <mxGeometry relative="1" as="geometry" />
        </mxCell>
        <mxCell id="asrnsn3DoZuYNmiQa2Yn-21" value="Send appointment reminders" style="rounded=1;whiteSpace=wrap;html=1;shadow=0;comic=0;labelBackgroundColor=none;strokeWidth=1;fontFamily=Verdana;fontSize=12;align=center;arcSize=50;" vertex="1" parent="1c1d494c118603dd-4">
          <mxGeometry x="31" y="540" width="150" height="40" as="geometry" />
        </mxCell>
        <mxCell id="asrnsn3DoZuYNmiQa2Yn-55" value="" style="shape=mxgraph.bpmn.shape;html=1;verticalLabelPosition=bottom;labelBackgroundColor=#ffffff;verticalAlign=top;perimeter=ellipsePerimeter;outline=end;symbol=terminate;rounded=0;shadow=0;comic=0;strokeWidth=1;fontFamily=Verdana;fontSize=12;align=center;" vertex="1" parent="1c1d494c118603dd-4">
          <mxGeometry x="85" y="610" width="40" height="40" as="geometry" />
        </mxCell>
        <mxCell id="asrnsn3DoZuYNmiQa2Yn-37" style="edgeStyle=none;curved=1;rounded=0;orthogonalLoop=1;jettySize=auto;html=1;fontSize=12;startSize=8;endSize=8;" edge="1" parent="1c1d494c118603dd-1" source="asrnsn3DoZuYNmiQa2Yn-19" target="asrnsn3DoZuYNmiQa2Yn-14">
          <mxGeometry relative="1" as="geometry" />
        </mxCell>
        <mxCell id="asrnsn3DoZuYNmiQa2Yn-1" value="Medical Records" style="swimlane;html=1;startSize=20;" vertex="1" parent="1c1d494c118603dd-1">
          <mxGeometry x="650" y="20" width="200" height="1170" as="geometry" />
        </mxCell>
        <mxCell id="asrnsn3DoZuYNmiQa2Yn-41" style="edgeStyle=none;curved=1;rounded=0;orthogonalLoop=1;jettySize=auto;html=1;fontSize=12;startSize=8;endSize=8;" edge="1" parent="asrnsn3DoZuYNmiQa2Yn-1" source="asrnsn3DoZuYNmiQa2Yn-23" target="asrnsn3DoZuYNmiQa2Yn-24">
          <mxGeometry relative="1" as="geometry" />
        </mxCell>
        <mxCell id="asrnsn3DoZuYNmiQa2Yn-23" value="Access patient medical records" style="rounded=1;whiteSpace=wrap;html=1;shadow=0;comic=0;labelBackgroundColor=none;strokeWidth=1;fontFamily=Verdana;fontSize=12;align=center;arcSize=50;" vertex="1" parent="asrnsn3DoZuYNmiQa2Yn-1">
          <mxGeometry x="27.5" y="665" width="142.5" height="35" as="geometry" />
        </mxCell>
        <mxCell id="asrnsn3DoZuYNmiQa2Yn-42" style="edgeStyle=none;curved=1;rounded=0;orthogonalLoop=1;jettySize=auto;html=1;fontSize=12;startSize=8;endSize=8;" edge="1" parent="asrnsn3DoZuYNmiQa2Yn-1" source="asrnsn3DoZuYNmiQa2Yn-24" target="asrnsn3DoZuYNmiQa2Yn-25">
          <mxGeometry relative="1" as="geometry" />
        </mxCell>
        <mxCell id="asrnsn3DoZuYNmiQa2Yn-24" value="Update medical history, diagnoses, and treatment plans" style="rounded=1;whiteSpace=wrap;html=1;shadow=0;comic=0;labelBackgroundColor=none;strokeWidth=1;fontFamily=Verdana;fontSize=12;align=center;arcSize=50;" vertex="1" parent="asrnsn3DoZuYNmiQa2Yn-1">
          <mxGeometry x="24.38" y="720" width="151.25" height="50" as="geometry" />
        </mxCell>
        <mxCell id="asrnsn3DoZuYNmiQa2Yn-71" style="edgeStyle=none;curved=1;rounded=0;orthogonalLoop=1;jettySize=auto;html=1;entryX=0.5;entryY=0;entryDx=0;entryDy=0;fontSize=12;startSize=8;endSize=8;" edge="1" parent="asrnsn3DoZuYNmiQa2Yn-1" source="asrnsn3DoZuYNmiQa2Yn-25" target="asrnsn3DoZuYNmiQa2Yn-57">
          <mxGeometry relative="1" as="geometry" />
        </mxCell>
        <mxCell id="asrnsn3DoZuYNmiQa2Yn-25" value="Request lab tests and radiology examinations" style="rounded=1;whiteSpace=wrap;html=1;shadow=0;comic=0;labelBackgroundColor=none;strokeWidth=1;fontFamily=Verdana;fontSize=12;align=center;arcSize=50;" vertex="1" parent="asrnsn3DoZuYNmiQa2Yn-1">
          <mxGeometry x="22.19" y="790" width="155.63" height="40" as="geometry" />
        </mxCell>
        <mxCell id="asrnsn3DoZuYNmiQa2Yn-57" value="" style="shape=mxgraph.bpmn.shape;html=1;verticalLabelPosition=bottom;labelBackgroundColor=#ffffff;verticalAlign=top;perimeter=ellipsePerimeter;outline=end;symbol=terminate;rounded=0;shadow=0;comic=0;strokeWidth=1;fontFamily=Verdana;fontSize=12;align=center;" vertex="1" parent="asrnsn3DoZuYNmiQa2Yn-1">
          <mxGeometry x="79.99999999999999" y="860" width="40" height="40" as="geometry" />
        </mxCell>
        <mxCell id="asrnsn3DoZuYNmiQa2Yn-43" style="edgeStyle=none;curved=1;rounded=0;orthogonalLoop=1;jettySize=auto;html=1;fontSize=12;startSize=8;endSize=8;" edge="1" parent="1c1d494c118603dd-1" source="asrnsn3DoZuYNmiQa2Yn-26" target="asrnsn3DoZuYNmiQa2Yn-27">
          <mxGeometry relative="1" as="geometry" />
        </mxCell>
        <mxCell id="asrnsn3DoZuYNmiQa2Yn-2" value="Billing" style="swimlane;html=1;startSize=20;" vertex="1" parent="1c1d494c118603dd-1">
          <mxGeometry x="850" y="20" width="200" height="1170" as="geometry" />
        </mxCell>
        <mxCell id="asrnsn3DoZuYNmiQa2Yn-44" style="edgeStyle=none;curved=1;rounded=0;orthogonalLoop=1;jettySize=auto;html=1;entryX=0.5;entryY=0;entryDx=0;entryDy=0;fontSize=12;startSize=8;endSize=8;" edge="1" parent="asrnsn3DoZuYNmiQa2Yn-2" source="asrnsn3DoZuYNmiQa2Yn-27" target="asrnsn3DoZuYNmiQa2Yn-28">
          <mxGeometry relative="1" as="geometry" />
        </mxCell>
        <mxCell id="asrnsn3DoZuYNmiQa2Yn-27" value="Create bills for patients based on services provided" style="rounded=1;whiteSpace=wrap;html=1;shadow=0;comic=0;labelBackgroundColor=none;strokeWidth=1;fontFamily=Verdana;fontSize=12;align=center;arcSize=50;" vertex="1" parent="asrnsn3DoZuYNmiQa2Yn-2">
          <mxGeometry x="11.09" y="915" width="177.82" height="30" as="geometry" />
        </mxCell>
        <mxCell id="asrnsn3DoZuYNmiQa2Yn-45" style="edgeStyle=none;curved=1;rounded=0;orthogonalLoop=1;jettySize=auto;html=1;fontSize=12;startSize=8;endSize=8;" edge="1" parent="asrnsn3DoZuYNmiQa2Yn-2" source="asrnsn3DoZuYNmiQa2Yn-28" target="asrnsn3DoZuYNmiQa2Yn-29">
          <mxGeometry relative="1" as="geometry" />
        </mxCell>
        <mxCell id="asrnsn3DoZuYNmiQa2Yn-28" value="Calculate charges for medications, procedures, and consultations" style="rounded=1;whiteSpace=wrap;html=1;shadow=0;comic=0;labelBackgroundColor=none;strokeWidth=1;fontFamily=Verdana;fontSize=12;align=center;arcSize=50;" vertex="1" parent="asrnsn3DoZuYNmiQa2Yn-2">
          <mxGeometry x="15.55" y="960" width="168.91" height="50" as="geometry" />
        </mxCell>
        <mxCell id="asrnsn3DoZuYNmiQa2Yn-64" style="edgeStyle=none;curved=1;rounded=0;orthogonalLoop=1;jettySize=auto;html=1;entryX=0.511;entryY=0.118;entryDx=0;entryDy=0;entryPerimeter=0;fontSize=12;startSize=8;endSize=8;" edge="1" parent="asrnsn3DoZuYNmiQa2Yn-2" source="asrnsn3DoZuYNmiQa2Yn-29" target="asrnsn3DoZuYNmiQa2Yn-59">
          <mxGeometry relative="1" as="geometry" />
        </mxCell>
        <mxCell id="asrnsn3DoZuYNmiQa2Yn-29" value="Process payments and generate invoices" style="rounded=1;whiteSpace=wrap;html=1;shadow=0;comic=0;labelBackgroundColor=none;strokeWidth=1;fontFamily=Verdana;fontSize=12;align=center;arcSize=50;" vertex="1" parent="asrnsn3DoZuYNmiQa2Yn-2">
          <mxGeometry x="17.78" y="1030" width="164.45" height="40" as="geometry" />
        </mxCell>
        <mxCell id="asrnsn3DoZuYNmiQa2Yn-59" value="" style="shape=mxgraph.bpmn.shape;html=1;verticalLabelPosition=bottom;labelBackgroundColor=#ffffff;verticalAlign=top;perimeter=ellipsePerimeter;outline=end;symbol=terminate;rounded=0;shadow=0;comic=0;strokeWidth=1;fontFamily=Verdana;fontSize=12;align=center;" vertex="1" parent="asrnsn3DoZuYNmiQa2Yn-2">
          <mxGeometry x="79.99999999999999" y="1100" width="40" height="40" as="geometry" />
        </mxCell>
        <mxCell id="asrnsn3DoZuYNmiQa2Yn-34" style="edgeStyle=none;curved=1;rounded=0;orthogonalLoop=1;jettySize=auto;html=1;fontSize=12;startSize=8;endSize=8;" edge="1" parent="1c1d494c118603dd-1" source="asrnsn3DoZuYNmiQa2Yn-17" target="asrnsn3DoZuYNmiQa2Yn-6">
          <mxGeometry relative="1" as="geometry" />
        </mxCell>
      </root>
    </mxGraphModel>
  </diagram>
</mxfile>
